# xmcd CD database file
#
# Track frame offsets:
#	187
#	12695
#	28227
#	41387
#	52650
#	66595
#	76287
#	86372
#	98715
#	109920
#	123110
#	137942
#	147540
#	159495
#	171630
#	184585
#	195617
#	206092
#
# Disc length: 2931 seconds
#
# Revision: 2
# Processed by: cddbd v1.5.2PL0 Copyright (c) Steve Scherf et al.
# Submitted via: CDex 1.51
#
DISCID=020b7112
DTITLE=Sons of the Pioneers - Tumbling Tumbleweeds
DYEAR=1987
DGENRE=Western
TTITLE0=Tumbling Tumbleweeds
TTITLE1=Home on the Range
TTITLE2=Empty Saddles
TTITLE3=Red River Valley
TTITLE4=Room Full of Roses
TTITLE5=Along the Navajo Trail
TTITLE6=Don't Fence Me In
TTITLE7=The Last Round-Up
TTITLE8=Twilight on the Trail
TTITLE9=Cool Water
TTITLE10=Riders in the Sky
TTITLE11=Whoopie-Ti-Yi-Yo
TTITLE12=The Shifting, Whispering Sands
TTITLE13=San Antonio Rose
TTITLE14=O Bury Me Not on the Lone Prairie
TTITLE15=Ragtime Cowboy Joe
TTITLE16=Wagon Wheels
TTITLE17=Take Me Back to My Boots and Saddle
EXTD=YEAR: 1987
EXTT0=
EXTT1=
EXTT2=
EXTT3=
EXTT4=
EXTT5=
EXTT6=
EXTT7=
EXTT8=
EXTT9=
EXTT10=
EXTT11=
EXTT12=
EXTT13=
EXTT14=
EXTT15=
EXTT16=
EXTT17=
PLAYORDER=
